<svg width="506" height="66" viewBox="0 0 506 66" fill="none" xmlns="http://www.w3.org/2000/svg">
<path fill-rule="evenodd" clip-rule="evenodd" d="M260.466 62.4109C260.413 62.4348 260.359 62.4559 260.304 62.4743L260.264 62.4848C260.116 62.5311 259.961 62.5547 259.806 62.5548C259.563 62.5603 259.321 62.5089 259.101 62.4046C258.881 62.3003 258.689 62.1461 258.539 61.9542C258.466 61.8652 258.403 61.7687 258.35 61.6664L247.84 43.4636V49.5475C247.84 50.0623 247.596 50.5441 247.189 50.849L247.028 50.9546L232.949 59.0832C232.702 59.2256 232.422 59.3005 232.136 59.3003C231.851 59.3001 231.571 59.2249 231.324 59.0822C231.077 58.9395 230.872 58.7343 230.729 58.4873C230.586 58.2402 230.511 57.96 230.511 57.6747V13.0112C230.511 12.342 230.868 11.847 231.349 11.5869L245.403 3.47554C245.776 3.2609 246.219 3.20276 246.635 3.31384C247.05 3.42493 247.405 3.69618 247.621 4.06822L258.174 22.275V13.0112C258.174 12.4964 258.42 12.0146 258.828 11.7097L258.988 11.6041L273.067 3.47554C273.314 3.33313 273.594 3.25825 273.879 3.25842C274.165 3.25859 274.445 3.3338 274.692 3.47651C274.939 3.61921 275.144 3.82438 275.287 4.07143C275.429 4.31847 275.505 4.5987 275.505 4.88398V52.7987C275.505 53.3795 275.194 53.9154 274.692 54.2058L260.696 62.2881C260.626 62.3331 260.552 62.3728 260.476 62.4069V62.4056L260.466 62.4109ZM272.254 7.69954L261.426 13.9511V58.1103L272.254 51.8588V7.69954ZM245.621 7.10158L234.356 13.6052L258.174 54.8592V28.7601L245.623 7.10158H245.621ZM233.761 19.0793V54.8592L244.589 48.6077V37.8325L242.67 34.5087L233.761 19.0806V19.0793Z" fill="#040062"/>
<path d="M310 32H506V34H310V32Z" fill="#B3CCDB"/>
<path d="M0 32H196V34H0V32Z" fill="#B3CCDB"/>
</svg>
