<svg width="83" height="24" viewBox="0 0 83 24" fill="none" xmlns="http://www.w3.org/2000/svg">
<path d="M4.84676 22.8785V9.48764L15.3954 22.8785H19.5716V1.22182H14.6943V14.5822L4.1773 1.22182H0V22.8796H4.84676V22.8785ZM29.2553 23.2145C31.2976 23.2145 32.7916 22.1782 33.402 21.3535V22.8785H38.0053V7.62655H33.402V9.15164C32.7916 8.328 31.2976 7.29055 29.2553 7.29055C25.2615 7.29055 22.1828 10.9211 22.1828 15.2531C22.1828 19.584 25.2626 23.2145 29.2553 23.2145ZM30.2928 19.0353C28.2189 19.0353 26.8166 17.4491 26.8166 15.2531C26.8166 13.056 28.2189 11.4698 30.2917 11.4698C32.3645 11.4698 33.7679 13.056 33.7679 15.2531C33.7679 17.4491 32.3645 19.0353 30.2917 19.0353H30.2928ZM50.2794 23.2145C54.2733 23.2145 57.353 19.584 57.353 15.2531C57.353 10.9211 54.2733 7.29055 50.2794 7.29055C48.2372 7.29055 46.7432 8.328 46.1338 9.15164V0H41.5306V22.8785H46.1338V21.3535C46.7432 22.1771 48.2372 23.2145 50.2794 23.2145ZM49.243 19.0353C47.1702 19.0353 45.7679 17.4491 45.7679 15.2531C45.7679 13.056 47.1702 11.4698 49.243 11.4698C51.3158 11.4698 52.7192 13.056 52.7192 15.2531C52.7192 17.4491 51.3158 19.0353 49.243 19.0353ZM64.5675 22.8785V0H59.9631V22.8785H64.5675ZM74.2511 23.2145C76.2934 23.2145 77.7874 22.1782 78.3968 21.3535V22.8785H83V7.62655H78.3968V9.15164C77.7874 8.328 76.2934 7.29055 74.2511 7.29055C70.2573 7.29055 67.1776 10.9211 67.1776 15.2531C67.1776 19.584 70.2573 23.2145 74.2511 23.2145ZM75.2876 19.0353C73.2136 19.0353 71.8114 17.4491 71.8114 15.2531C71.8114 13.056 73.2136 11.4698 75.2876 11.4698C77.3604 11.4698 78.7626 13.056 78.7626 15.2531C78.7626 17.4491 77.3604 19.0353 75.2876 19.0353Z" fill="#040062"/>
</svg>
